<svg width="210" height="66" viewBox="0 0 210 66" fill="none" xmlns="http://www.w3.org/2000/svg">
<path d="M63.056 50.0001V49.5201L63.92 49.1841C64.56 48.9281 64.992 48.6081 65.216 48.2241C65.472 47.84 65.6 47.3281 65.6 46.6881V21.6321C65.6 20.9601 65.472 20.4321 65.216 20.0481C64.992 19.6641 64.56 19.3601 63.92 19.1361L63.056 18.8001V18.3201H76.832C80.736 18.3201 83.552 19.0401 85.28 20.4801C87.008 21.8881 87.872 23.6801 87.872 25.8561C87.872 27.4881 87.232 28.9761 85.952 30.3201C84.704 31.6321 82.544 32.5601 79.472 33.1041C82.992 33.4881 85.568 34.4161 87.2 35.8881C88.832 37.3281 89.648 39.0881 89.648 41.1681C89.648 42.1921 89.424 43.232 88.976 44.288C88.528 45.312 87.76 46.2561 86.672 47.1201C85.616 47.9841 84.16 48.688 82.304 49.232C80.448 49.744 78.096 50.0001 75.248 50.0001H63.056ZM72.704 33.0561H74.768C76.912 33.0561 78.448 32.5601 79.376 31.5681C80.336 30.5761 80.816 28.8481 80.816 26.3841C80.816 23.8241 80.384 22.0001 79.52 20.9121C78.656 19.8241 77.248 19.2801 75.296 19.2801H72.704V33.0561ZM72.704 49.0401H75.104C77.504 49.0401 79.28 48.4001 80.432 47.1201C81.616 45.84 82.208 43.84 82.208 41.1201C82.208 38.5601 81.648 36.736 80.528 35.6481C79.408 34.5601 77.568 34.0161 75.008 34.0161H72.704V49.0401ZM104.073 50.7201C101.641 50.7201 99.5288 50.224 97.7368 49.232C95.9448 48.208 94.5528 46.7681 93.5608 44.9121C92.6008 43.056 92.1208 40.8801 92.1208 38.3841C92.1208 35.8881 92.6328 33.7281 93.6568 31.9041C94.7128 30.0801 96.1368 28.6721 97.9288 27.6801C99.7528 26.6881 101.801 26.1921 104.073 26.1921C106.345 26.1921 108.377 26.6881 110.169 27.6801C111.961 28.6401 113.369 30.0321 114.393 31.8561C115.449 33.6801 115.977 35.8561 115.977 38.3841C115.977 40.9121 115.481 43.104 114.489 44.9601C113.529 46.784 112.153 48.208 110.361 49.232C108.601 50.224 106.505 50.7201 104.073 50.7201ZM104.073 49.76C105.193 49.76 106.089 49.44 106.761 48.8C107.433 48.16 107.913 47.024 108.201 45.392C108.521 43.76 108.681 41.4561 108.681 38.4801C108.681 35.4721 108.521 33.1521 108.201 31.5201C107.913 29.8881 107.433 28.7521 106.761 28.1121C106.089 27.4721 105.193 27.1521 104.073 27.1521C102.953 27.1521 102.041 27.4721 101.337 28.1121C100.665 28.7521 100.169 29.8881 99.8488 31.5201C99.5608 33.1521 99.4168 35.4721 99.4168 38.4801C99.4168 41.4561 99.5608 43.76 99.8488 45.392C100.169 47.024 100.665 48.16 101.337 48.8C102.041 49.44 102.953 49.76 104.073 49.76ZM130.51 50.7201C128.078 50.7201 125.966 50.224 124.174 49.232C122.382 48.208 120.99 46.7681 119.998 44.9121C119.038 43.056 118.558 40.8801 118.558 38.3841C118.558 35.8881 119.07 33.7281 120.094 31.9041C121.15 30.0801 122.574 28.6721 124.366 27.6801C126.19 26.6881 128.238 26.1921 130.51 26.1921C132.782 26.1921 134.814 26.6881 136.606 27.6801C138.398 28.6401 139.806 30.0321 140.83 31.8561C141.886 33.6801 142.414 35.8561 142.414 38.3841C142.414 40.9121 141.918 43.104 140.926 44.9601C139.966 46.784 138.59 48.208 136.798 49.232C135.038 50.224 132.942 50.7201 130.51 50.7201ZM130.51 49.76C131.63 49.76 132.526 49.44 133.198 48.8C133.87 48.16 134.35 47.024 134.638 45.392C134.958 43.76 135.118 41.4561 135.118 38.4801C135.118 35.4721 134.958 33.1521 134.638 31.5201C134.35 29.8881 133.87 28.7521 133.198 28.1121C132.526 27.4721 131.63 27.1521 130.51 27.1521C129.39 27.1521 128.478 27.4721 127.774 28.1121C127.102 28.7521 126.606 29.8881 126.286 31.5201C125.998 33.1521 125.854 35.4721 125.854 38.4801C125.854 41.4561 125.998 43.76 126.286 45.392C126.606 47.024 127.102 48.16 127.774 48.8C128.478 49.44 129.39 49.76 130.51 49.76ZM144.431 50.0001V49.5201L145.151 49.2801C146.239 48.9281 146.783 48.1441 146.783 46.9281V21.2481C146.783 20.6081 146.655 20.1281 146.399 19.8081C146.143 19.4881 145.695 19.2321 145.055 19.0401L144.431 18.8961V18.4161L153.215 16.3521L153.791 16.7841L153.647 23.5041V46.9281C153.647 48.2081 154.175 49.008 155.231 49.328L155.903 49.5201V50.0001H144.431ZM162.239 50.0001L153.695 38.0001L162.575 29.7921C162.991 29.4081 163.231 29.0081 163.295 28.5921C163.391 28.1441 163.119 27.8241 162.479 27.6321L161.663 27.3921V26.9121H168.815V27.3921L167.375 27.7761C166.671 28.0001 166.095 28.2721 165.647 28.5921C165.231 28.8801 164.719 29.2961 164.111 29.8401L158.735 34.8801L167.327 46.8321C167.839 47.5361 168.319 48.08 168.767 48.4641C169.215 48.848 169.791 49.168 170.495 49.424L170.687 49.5201V50.0001H162.239ZM178.033 23.6961C176.945 23.6961 176.017 23.3601 175.249 22.6881C174.513 21.9841 174.145 21.1041 174.145 20.0481C174.145 18.9601 174.513 18.0801 175.249 17.4081C176.017 16.7361 176.945 16.4001 178.033 16.4001C179.121 16.4001 180.033 16.7361 180.769 17.4081C181.505 18.0801 181.873 18.9601 181.873 20.0481C181.873 21.1041 181.505 21.9841 180.769 22.6881C180.033 23.3601 179.121 23.6961 178.033 23.6961ZM172.369 50.0001V49.5201L173.041 49.328C173.681 49.136 174.113 48.848 174.337 48.4641C174.593 48.08 174.721 47.5681 174.721 46.9281V31.9041C174.721 31.2321 174.593 30.7361 174.337 30.4161C174.113 30.0641 173.681 29.8241 173.041 29.6961L172.369 29.5521V29.0721L181.153 26.2401L181.633 26.7201L181.489 33.5361V46.9761C181.489 47.6161 181.601 48.1281 181.825 48.5121C182.081 48.8961 182.513 49.1841 183.121 49.3761L183.601 49.5201V50.0001H172.369ZM192.734 50.7201C190.878 50.7201 189.31 50.1921 188.03 49.1361C186.782 48.0801 186.158 46.5601 186.158 44.5761C186.158 43.0721 186.926 41.6961 188.462 40.4481C189.998 39.1681 192.414 38.2081 195.71 37.5681C196.222 37.4721 196.798 37.3761 197.438 37.2801C198.078 37.1521 198.75 37.0241 199.454 36.8961V33.1041C199.454 30.9281 199.182 29.4081 198.638 28.5441C198.126 27.6481 197.31 27.2001 196.19 27.2001C195.422 27.2001 194.814 27.4561 194.366 27.9681C193.918 28.4481 193.63 29.2961 193.502 30.5121L193.406 31.0401C193.342 32.4161 193.006 33.4241 192.398 34.0641C191.79 34.7041 191.038 35.024 190.142 35.024C189.31 35.024 188.622 34.7681 188.078 34.2561C187.534 33.7441 187.262 33.0561 187.262 32.1921C187.262 30.8801 187.71 29.7761 188.606 28.8801C189.534 27.9841 190.75 27.3121 192.254 26.8641C193.758 26.4161 195.39 26.1921 197.15 26.1921C199.998 26.1921 202.19 26.8961 203.726 28.3041C205.294 29.6801 206.078 31.9361 206.078 35.0721V45.6801C206.078 47.1201 206.75 47.8401 208.094 47.8401H209.15L209.582 48.2241C208.974 48.9921 208.302 49.5841 207.566 50.0001C206.862 50.4161 205.854 50.6241 204.542 50.6241C203.134 50.6241 202.014 50.3041 201.182 49.6641C200.382 48.9921 199.854 48.112 199.598 47.024C198.638 48.048 197.646 48.9281 196.622 49.6641C195.63 50.3681 194.334 50.7201 192.734 50.7201ZM195.662 47.7921C196.302 47.7921 196.894 47.6481 197.438 47.3601C198.014 47.0401 198.686 46.56 199.454 45.92V37.8561C199.134 37.92 198.814 37.9841 198.494 38.0481C198.174 38.1121 197.806 38.1761 197.39 38.2401C195.918 38.6241 194.734 39.2801 193.838 40.2081C192.974 41.1041 192.542 42.3201 192.542 43.8561C192.542 45.1681 192.846 46.1601 193.454 46.8321C194.062 47.4721 194.798 47.7921 195.662 47.7921Z" fill="#2F2F2F"/>
<path d="M28.5 16.5875V54.6588C28.0963 54.6588 27.6688 54.5875 27.3363 54.3975L27.2413 54.35C22.6813 51.8563 14.725 49.2438 9.57125 48.555L8.8825 48.46C6.6025 48.175 4.75 46.0375 4.75 43.7575V15.0675C4.75 12.2413 7.05375 10.1038 9.88 10.3413C14.8675 10.745 22.42 13.2625 26.6475 15.8988L27.2413 16.255C27.5975 16.4688 28.0487 16.5875 28.5 16.5875Z" fill="#BFA054"/>
<path d="M52.25 15.0913V43.7575C52.25 46.0375 50.3975 48.175 48.1175 48.46L47.3338 48.555C42.1563 49.2438 34.1763 51.88 29.6163 54.3975C29.3075 54.5875 28.9275 54.6588 28.5 54.6588V16.5875C28.9512 16.5875 29.4025 16.4688 29.7587 16.255L30.1625 15.9938C34.39 13.3338 41.9663 10.7925 46.9538 10.365H47.0963C49.9225 10.1275 52.25 12.2413 52.25 15.0913Z" fill="#2F2F2F"/>
<path d="M18.4062 25.9449H13.0625C12.0888 25.9449 11.2812 25.1374 11.2812 24.1637C11.2812 23.1899 12.0888 22.3824 13.0625 22.3824H18.4062C19.38 22.3824 20.1875 23.1899 20.1875 24.1637C20.1875 25.1374 19.38 25.9449 18.4062 25.9449Z" fill="#2F2F2F"/>
<path d="M20.1875 33.0699H13.0625C12.0888 33.0699 11.2812 32.2624 11.2812 31.2887C11.2812 30.3149 12.0888 29.5074 13.0625 29.5074H20.1875C21.1613 29.5074 21.9688 30.3149 21.9688 31.2887C21.9688 32.2624 21.1613 33.0699 20.1875 33.0699Z" fill="#2F2F2F"/>
</svg>
