<svg width="19" height="21" viewBox="0 0 19 21" fill="none" xmlns="http://www.w3.org/2000/svg">
<path fill-rule="evenodd" clip-rule="evenodd" d="M12.6469 0.916748C16.1802 0.916748 18.2073 2.52579 18.2073 5.32892V19.2592C18.2073 19.8438 17.8802 20.37 17.3302 20.6642C16.7823 20.9593 16.1219 20.9651 15.5677 20.6776L9.35938 17.4509L3.09375 20.6843C2.82292 20.8242 2.52604 20.8951 2.22813 20.8951C1.92084 20.8951 1.61354 20.8194 1.33438 20.668C0.785419 20.3738 0.458336 19.8477 0.458336 19.264V5.15354C0.458336 2.46062 2.48646 0.916748 6.02292 0.916748H12.6469ZM12.6469 2.35425H6.02292C3.36771 2.35425 2.02084 3.29533 2.02084 5.15354V19.264C2.02084 19.3541 2.07709 19.403 2.12396 19.4279C2.17084 19.4547 2.24479 19.4739 2.33021 19.4298L8.97813 15.999C9.21563 15.8773 9.50625 15.8763 9.74479 16L16.3354 19.425C16.4219 19.471 16.4958 19.45 16.5427 19.4241C16.5896 19.3982 16.6448 19.3493 16.6448 19.2592L16.6444 5.21971C16.6365 4.3949 16.4631 2.35425 12.6469 2.35425ZM13.104 7.36489C13.5352 7.36489 13.8852 7.68689 13.8852 8.08364C13.8852 8.48039 13.5352 8.80239 13.104 8.80239H5.48104C5.04979 8.80239 4.69979 8.48039 4.69979 8.08364C4.69979 7.68689 5.04979 7.36489 5.48104 7.36489H13.104Z" fill="black"/>
</svg>
