<svg width="21" height="20" viewBox="0 0 21 20" fill="none" xmlns="http://www.w3.org/2000/svg">
<path fill-rule="evenodd" clip-rule="evenodd" d="M0.71554 1.31539C0.71554 1.13779 0.786091 0.967468 0.911674 0.841886C1.03726 0.716304 1.20758 0.645752 1.38518 0.645752H3.39411C3.54348 0.645793 3.68855 0.695775 3.80625 0.787749C3.92395 0.879724 4.00752 1.00841 4.04366 1.15334L4.58608 3.32432H20.1352C20.2369 3.32435 20.3373 3.34755 20.4287 3.39216C20.5201 3.43677 20.6001 3.50162 20.6628 3.58179C20.7254 3.66195 20.7689 3.75533 20.79 3.85482C20.8112 3.95432 20.8094 4.05733 20.7847 4.15602L18.7758 12.1917C18.7397 12.3367 18.6561 12.4654 18.5384 12.5573C18.4207 12.6493 18.2756 12.6993 18.1263 12.6993H6.07268C5.92331 12.6993 5.77824 12.6493 5.66054 12.5573C5.54285 12.4654 5.45928 12.3367 5.42313 12.1917L2.87179 1.98504H1.38518C1.20758 1.98504 1.03726 1.91449 0.911674 1.7889C0.786091 1.66332 0.71554 1.493 0.71554 1.31539ZM4.9209 4.66361L6.595 11.36H17.6039L19.278 4.66361H4.9209ZM7.41197 15.3779C7.05677 15.3779 6.71612 15.519 6.46495 15.7702C6.21379 16.0213 6.07268 16.362 6.07268 16.7172C6.07268 17.0724 6.21379 17.413 6.46495 17.6642C6.71612 17.9154 7.05677 18.0565 7.41197 18.0565C7.76717 18.0565 8.10782 17.9154 8.35899 17.6642C8.61015 17.413 8.75125 17.0724 8.75125 16.7172C8.75125 16.362 8.61015 16.0213 8.35899 15.7702C8.10782 15.519 7.76717 15.3779 7.41197 15.3779ZM4.7334 16.7172C4.7334 16.0068 5.0156 15.3255 5.51793 14.8231C6.02026 14.3208 6.70157 14.0386 7.41197 14.0386C8.12237 14.0386 8.80368 14.3208 9.306 14.8231C9.80833 15.3255 10.0905 16.0068 10.0905 16.7172C10.0905 17.4276 9.80833 18.1089 9.306 18.6112C8.80368 19.1135 8.12237 19.3958 7.41197 19.3958C6.70157 19.3958 6.02026 19.1135 5.51793 18.6112C5.0156 18.1089 4.7334 17.4276 4.7334 16.7172ZM16.787 15.3779C16.4318 15.3779 16.0911 15.519 15.84 15.7702C15.5888 16.0213 15.4477 16.362 15.4477 16.7172C15.4477 17.0724 15.5888 17.413 15.84 17.6642C16.0911 17.9154 16.4318 18.0565 16.787 18.0565C17.1422 18.0565 17.4828 17.9154 17.734 17.6642C17.9852 17.413 18.1263 17.0724 18.1263 16.7172C18.1263 16.362 17.9852 16.0213 17.734 15.7702C17.4828 15.519 17.1422 15.3779 16.787 15.3779ZM14.1084 16.7172C14.1084 16.0068 14.3906 15.3255 14.8929 14.8231C15.3953 14.3208 16.0766 14.0386 16.787 14.0386C17.4974 14.0386 18.1787 14.3208 18.681 14.8231C19.1833 15.3255 19.4655 16.0068 19.4655 16.7172C19.4655 17.4276 19.1833 18.1089 18.681 18.6112C18.1787 19.1135 17.4974 19.3958 16.787 19.3958C16.0766 19.3958 15.3953 19.1135 14.8929 18.6112C14.3906 18.1089 14.1084 17.4276 14.1084 16.7172Z" fill="black"/>
</svg>
