<?xml version="1.0" ?>
<svg xmlns="http://www.w3.org/2000/svg" id="Layer_1" data-name="Layer 1" viewBox="0 0 128 128">
    <defs>
        <style>.cls-1{fill:#1786c4;}</style>
    </defs>
    <title/>
    <path class="cls-1"
          d="M26.51021,32.5a11.23661,11.23661,0,0,0,8.46814,10.87213,31.10315,31.10315,0,0,0,12.34827,15.256,2.11025,2.11025,0,0,0-.43683,3.72571,31.0178,31.0178,0,0,0,34.22046,0,2.11026,2.11026,0,0,0-.43683-3.72571,31.10315,31.10315,0,0,0,12.34827-15.256A11.20113,11.20113,0,0,0,98,24.38544V11.94519a4,4,0,1,0-4,0V21.924c-.31549-.11182-.63794-.2077-.96429-.294a31.00569,31.00569,0,0,0-58.07141,0c-.32635.0863-.6488.18219-.96429.294V11.94519a4,4,0,1,0-4,0V24.38544A11.18418,11.18418,0,0,0,26.51021,32.5ZM64,7.5a25,25,0,1,1-25,25A25,25,0,0,1,64,7.5Z"/>
    <path class="cls-1" d="M64,48.5a10.01732,10.01732,0,0,0,9.8-8H54.2A10.01727,10.01727,0,0,0,64,48.5Z"/>
    <path class="cls-1"
          d="M55,31.31l4.05-4.05A3.26175,3.26175,0,0,0,55,22.2a3.25535,3.25535,0,0,0-5,2.75,3.27811,3.27811,0,0,0,.95,2.31Z"/>
    <path class="cls-1"
          d="M73,31.31l4.05-4.05A3.26175,3.26175,0,0,0,73,22.2a3.25535,3.25535,0,0,0-5,2.75,3.27811,3.27811,0,0,0,.95,2.31Z"/>
    <path class="cls-1"
          d="M113.15279,77.55249c-12.09155-11.36963-30.4386-12.08521-30.4386-12.08521a62.9048,62.9048,0,0,1-7.39954,3.34418A55.186,55.186,0,0,1,78.06,75.22522,14.47324,14.47324,0,0,1,64.359,94.6037h-.72375a14.48292,14.48292,0,0,1-13.701-19.391,58.03962,58.03962,0,0,1,2.75769-6.40125,34.28774,34.28774,0,0,1-7.39948-3.34418s-18.31708.67249-30.44562,12.08533a3.76447,3.76447,0,0,0-1.19116,3.20264c.42285,3.36743,2.08014,10.42328,8.57574,14.00342a3.69419,3.69419,0,0,0,3.39343.05707,29.14285,29.14285,0,0,0,7.88824-6.07666,29.80105,29.80105,0,0,1,.98889-9.00116,2.19505,2.19505,0,0,1,2.79352-1.51984,2.171,2.171,0,0,1,1.4248,2.63586,25.09836,25.09836,0,0,0,.33313,14.37372,26.95349,26.95349,0,0,1,7.91107,2.63281c6.75067,3.43146,11.25507,9.02167,12.6153,14.7865a25.21275,25.21275,0,0,0,3.78094.24951c.212,0,.42413-.01251.63635-.01251.212,0,.42426.01251.63635.01251a25.21222,25.21222,0,0,0,3.78094-.24951c1.34741-5.76483,5.86462-11.34253,12.61517-14.7865a27.02587,27.02587,0,0,1,7.92371-2.63281,25.22852,25.22852,0,0,0,.32709-14.36951,2.17111,2.17111,0,0,1,1.41931-2.631A2.19512,2.19512,0,0,1,93.5,79.745a29.80257,29.80257,0,0,1,.98706,8.99408,29.14092,29.14092,0,0,0,7.88824,6.0766,3.69371,3.69371,0,0,0,3.39337-.05707c6.4953-3.58,8.15271-10.63513,8.57562-14.00275A3.76437,3.76437,0,0,0,113.15279,77.55249Z"/>
    <path class="cls-1"
          d="M44.98049,101.75367c-8.43518-4.30487-17.81873-2.80762-20.96326,3.35651C20.87276,111.262,25.17769,119.747,33.62533,124.052c8.43524,4.29248,17.81873,2.795,20.96326-3.35669C57.73305,114.53119,53.42818,106.05854,44.98049,101.75367ZM41.50582,107.462a25.30463,25.30463,0,0,0-3.61292,4.72333,25.06881,25.06881,0,0,0-1.69891,5.68457,1.24781,1.24781,0,0,1-1.88666.82031,15.23968,15.23968,0,0,1-5.38629-5.68127c-.61139-1.22284-1.49725-3.58136-.46155-5.64014.98572-1.9342,3.5188-3.082,6.76306-3.082a16.047,16.047,0,0,1,5.82947,1.159A1.25376,1.25376,0,0,1,41.50582,107.462Z"/>
    <path class="cls-1"
          d="M83.01955,101.75367c-8.44763,4.30487-12.75256,12.77753-9.608,18.94165C76.556,126.847,85.9396,128.34449,94.37478,124.052c8.44769-4.30505,12.75256-12.79,9.608-18.94183C100.83834,98.946,91.45479,97.4488,83.01955,101.75367Zm16.05951,11.25525a15.24046,15.24046,0,0,1-5.38623,5.68127,1.24787,1.24787,0,0,1-1.88672-.82031,25.06571,25.06571,0,0,0-1.69891-5.68457,25.30432,25.30432,0,0,0-3.61285-4.72333,1.25368,1.25368,0,0,1,.45374-2.01624,16.04749,16.04749,0,0,1,5.82947-1.159c3.24426,0,5.77734,1.14783,6.763,3.082C100.57638,109.42756,99.69045,111.78608,99.07906,113.00891Z"/>
</svg>