<svg width="16" height="21" viewBox="0 0 16 21" fill="none" xmlns="http://www.w3.org/2000/svg">
<path fill-rule="evenodd" clip-rule="evenodd" d="M15.8399 16.6932C15.8399 19.9892 11.3199 20.3702 7.9209 20.3702L7.67766 20.3699C5.5121 20.3647 -9.91821e-05 20.228 -9.91821e-05 16.6732C-9.91821e-05 13.4444 4.33825 13.0129 7.71138 12.9967L8.16413 12.9964C10.3295 13.0016 15.8399 13.1383 15.8399 16.6932ZM7.9209 14.4962C3.6599 14.4962 1.4999 15.2282 1.4999 16.6732C1.4999 18.1312 3.6599 18.8702 7.9209 18.8702C12.1809 18.8702 14.3399 18.1382 14.3399 16.6932C14.3399 15.2352 12.1809 14.4962 7.9209 14.4962ZM7.9209 0.499756C10.8489 0.499756 13.2299 2.88176 13.2299 5.80976C13.2299 8.73776 10.8489 11.1188 7.9209 11.1188H7.8889C4.9669 11.1098 2.5999 8.72676 2.60987 5.80676C2.60987 2.88176 4.9919 0.499756 7.9209 0.499756ZM7.9209 1.92776C5.7799 1.92776 4.03788 3.66876 4.03788 5.80976C4.0309 7.94376 5.7599 9.68376 7.8919 9.69176L7.9209 10.4058V9.69176C10.0609 9.69176 11.8019 7.94976 11.8019 5.80976C11.8019 3.66876 10.0609 1.92776 7.9209 1.92776Z" fill="black"/>
</svg>
